# xmcd
#
# Track frame offsets: 
#        150
#        18435
#        40313
#        57364
#        71040
#        90423
#        106820
#        121886
#        137169
#        150829
#        164953
#        181983
#        197374
#
# Disc length: 2955 seconds
#
# Revision: 0
# Processed by: cddbd v1.5.2PL0 Copyright (c) Steve Scherf et al.
# Submitted via: ExactAudioCopyFreeDBPlugin 1.0
#
DISCID=a80b890d
DTITLE=Terry Brennan - Roads
DYEAR=2005
DGENRE=Blues
TTITLE0=Too Hot to Handle
TTITLE1=One Sweet Dream
TTITLE2=Sally Come Easy
TTITLE3=Already Rockin
TTITLE4=Drop Dat Monkey
TTITLE5=You Won't
TTITLE6=The Rain Remembers
TTITLE7=CC Ryder
TTITLE8=Roads
TTITLE9=Shame on You
TTITLE10=No Exit
TTITLE11=Last Waltz
TTITLE12=Goin Down the River
EXTD=
EXTT0=
EXTT1=
EXTT2=
EXTT3=
EXTT4=
EXTT5=
EXTT6=
EXTT7=
EXTT8=
EXTT9=
EXTT10=
EXTT11=
EXTT12=
PLAYORDER=
